<svg id="Layer_1" data-name="Layer 1" xmlns="http://www.w3.org/2000/svg" viewBox="0 0 41 41"><defs><style>.cls-1{fill:#bababa;}.cls-2{fill:#148417;}.cls-3{fill:#2ca832;}</style></defs><title>WEBSITE GOLF</title><rect class="cls-1" x="28.54" y="3.19" width="2.19" height="20.45" transform="translate(-2.42 7.89) rotate(-14.59)"/><rect class="cls-1" x="10.27" y="3.19" width="2.19" height="20.45"/><path class="cls-2" d="M35.84,1H2.24A1.46,1.46,0,0,0,.78,2.46h0A1.46,1.46,0,0,0,2.24,3.92h33.6A1.46,1.46,0,0,0,37.3,2.46h0A1.46,1.46,0,0,0,35.84,1Z"/><rect class="cls-3" x="1.51" y="31.68" width="38.72" height="3.65"/><path class="cls-3" d="M6,20.72H19.53a0,0,0,0,1,0,0V35.33a0,0,0,0,1,0,0H0a0,0,0,0,1,0,0V26.68A6,6,0,0,1,6,20.72Z"/><path class="cls-3" d="M27.8,22.18h7.37A5.78,5.78,0,0,1,41,28v7.37a0,0,0,0,1,0,0H27.8a0,0,0,0,1,0,0V22.18A0,0,0,0,1,27.8,22.18Z"/><path class="cls-2" d="M15.39,35.12a4.88,4.88,0,1,1-4.88-4.88A4.88,4.88,0,0,1,15.39,35.12Z"/><path class="cls-3" d="M13.61,35.12a3.11,3.11,0,1,1-3.1-3.1A3.1,3.1,0,0,1,13.61,35.12Z"/><path class="cls-2" d="M39.49,35.12a4.88,4.88,0,1,1-4.88-4.88A4.87,4.87,0,0,1,39.49,35.12Z"/><path class="cls-3" d="M37.72,35.12A3.11,3.11,0,1,1,34.61,32,3.11,3.11,0,0,1,37.72,35.12Z"/></svg>