<svg id="Layer_1" data-name="Layer 1" xmlns="http://www.w3.org/2000/svg" viewBox="0 0 41 41"><defs><style>.cls-1{fill:#bababa;}.cls-2{fill:#2ca832;}.cls-3{fill:#148417;}</style></defs><title>WEBSITE GOLF</title><path class="cls-1" d="M20.5,35.55h0a1.25,1.25,0,0,1-1.26-1.26V10.14A1.26,1.26,0,0,1,20.5,8.87h0a1.26,1.26,0,0,1,1.26,1.27V34.29A1.25,1.25,0,0,1,20.5,35.55Z"/><path class="cls-1" d="M18.67,37.17h-.62a3.29,3.29,0,0,1-3.5-3V32h2.53v2.2c0,.18.36.5,1,.5h.62a1.15,1.15,0,0,0,.86-.3c.08-.09,1-.17,1-.21l1.44,0a2.42,2.42,0,0,1-.58,2A3.65,3.65,0,0,1,18.67,37.17Z"/><path class="cls-2" d="M.31,18.25c0-8,9-14.42,20.19-14.42h0c11.15,0,20.19,6.45,20.19,14.42Z"/><path class="cls-3" d="M6.08,18.25A14.42,14.42,0,0,1,20.5,3.83h0A14.42,14.42,0,0,1,34.92,18.25Z"/><path class="cls-2" d="M11.13,18.25c0-8,4.19-14.42,9.37-14.42h0c5.18,0,9.37,6.45,9.37,14.42Z"/><path class="cls-3" d="M17.62,18.25c0-8,1.29-14.42,2.88-14.42h0c1.59,0,2.88,6.45,2.88,14.42Z"/></svg>