<svg id="Layer_1" data-name="Layer 1" xmlns="http://www.w3.org/2000/svg" xmlns:xlink="http://www.w3.org/1999/xlink" viewBox="0 0 41 41"><defs><style>.cls-1{fill:none;}.cls-2{clip-path:url(#clip-path);}.cls-3{fill:#148417;}.cls-4{fill:#2ca832;}.cls-5{fill:#fff;}</style><clipPath id="clip-path"><rect class="cls-1" y="2.34" width="41" height="36.33"/></clipPath></defs><title>WEBSITE GOLF</title><g class="cls-2"><path class="cls-3" d="M15.55,18.72a55.58,55.58,0,0,1,15.72.38c5.62,1.17,11,2.87,6.81,5.76-1.06.74-2,.75-3.44,1.47-2.6,1.35-.76,4.36,2.88,4.34s4.22,3,2.78,4.34c-1.88,1.73-8.33,3.61-19.45,3.61S0,36.45,0,29.94s5.9-9.48,12.72-10.78Zm0,0"/></g><path class="cls-4" d="M6.36,34.41a.65.65,0,0,1-.27,0C3.31,33.19,2,31.49,2.14,29.3A7.36,7.36,0,0,1,6,23.74.7.7,0,0,1,7,24a.74.74,0,0,1-.24,1c-.89.54-3,2.05-3.17,4.42-.11,1.51.9,2.69,3.08,3.61a.74.74,0,0,1,.43.81.72.72,0,0,1-.7.58Zm0,0"/><path class="cls-4" d="M19.09,28.48c0,1.31-1.49,2.42-3.54,2.77V25.71c2.05.35,3.54,1.46,3.54,2.77Zm0,0"/><path class="cls-4" d="M12.72,25.71v5.54c-2-.35-3.53-1.46-3.53-2.77s1.49-2.42,3.53-2.77Zm0,0"/><path class="cls-3" d="M24.3,9.6l-9.45,3.67V4.58L24.3,8.25a.74.74,0,0,1,0,1.35Zm0,0"/><path class="cls-5" d="M29,24.14A2.12,2.12,0,1,1,26.86,22,2.14,2.14,0,0,1,29,24.14Zm0,0"/><path class="cls-4" d="M15.55,3.86V31.25a7.92,7.92,0,0,1-2.83,0V3.86a1.42,1.42,0,1,1,2.83,0Zm0,0"/></svg>