<svg id="Layer_1" data-name="Layer 1" xmlns="http://www.w3.org/2000/svg" xmlns:xlink="http://www.w3.org/1999/xlink" viewBox="0 0 45 41"><defs><style>.cls-1{fill:none;}.cls-2{fill:#2ca832;}.cls-3{fill:#bababa;}.cls-4{fill:#148417;}.cls-5{clip-path:url(#clip-path);}</style><clipPath id="clip-path"><path class="cls-1" d="M19.67,11l-1.19.59c-2.12.05.36.17-.57,2.34-1.75,3.86-5.9,5.38-9.28,3.39a8.06,8.06,0,0,1-3.74-7H.3V26.08a1.65,1.65,0,0,0,1.53,1.74H43.18a1.63,1.63,0,0,0,1.52-1.73V23.33c0-6.94-6.55-7.54-8.94-7.54S19.67,11,19.67,11Z"/></clipPath></defs><title>WEBSITE GOLF</title><path class="cls-2" d="M35.76,15.79c-2.38,0-17.26-5.44-17.26-5.44h-.38a5.18,5.18,0,0,0-2.25.58,6.55,6.55,0,0,1-12.78-.58H.3V26.08a1.65,1.65,0,0,0,1.53,1.74H43.18a1.63,1.63,0,0,0,1.52-1.73V23.33C44.7,16.39,38.15,15.79,35.76,15.79Z"/><path class="cls-3" d="M1.6,26.76l1,3.16H4.13v.77H7.19v-.77h3.06v.77h3.06v-.77H24.8v.77h3.06v-.77h3.06v.77H34v-.77h3.07v.77h3.06v-.77H42.4l1-3.16Zm0,0"/><path class="cls-4" d="M21.21,14a1.09,1.09,0,0,0,1.68,0h0L25,11.58l-2.47-1L21.22,12a1.48,1.48,0,0,0,0,1.91Zm0,0"/><path class="cls-4" d="M25.05,15.12a1.09,1.09,0,0,0,1.67,0L28.61,13l-2.47-1L25.05,13.2A1.44,1.44,0,0,0,25,15.08s0,.05.09,0Zm0,0"/><g class="cls-5"><path class="cls-4" d="M26.23,8.64v1.79h1.19a5.37,5.37,0,0,1,0,10.73H26.23v2.38H46.49V8.64Z"/><rect class="cls-2" x="8.35" y="25.33" width="6.55" height="2.98"/><path class="cls-4" d="M41.72,31.88H17.89a5.36,5.36,0,0,1-5.37-5.36h0a5.36,5.36,0,0,1,5.37-5.36H41.72a5.36,5.36,0,0,1,5.36,5.36h0A5.36,5.36,0,0,1,41.72,31.88Z"/><circle class="cls-4" cx="1.2" cy="28.31" r="8.94" transform="translate(-19.66 9.14) rotate(-45)"/></g></svg>