<svg id="Layer_1" data-name="Layer 1" xmlns="http://www.w3.org/2000/svg" viewBox="0 0 41 41"><defs><style>.cls-1{fill:#bababa;}.cls-2{fill:#148417;}.cls-3{fill:#2ca832;}</style></defs><title>WEBSITE GOLF</title><rect class="cls-1" x="14.03" y="34.16" width="12.48" height="1.31"/><path class="cls-1" d="M33.08,18.39H30.45V17.08h2.63a.65.65,0,0,1,.65.66h0A.65.65,0,0,1,33.08,18.39Z"/><rect class="cls-1" x="22.24" y="25.95" width="16.42" height="1.31" transform="translate(3.85 57.06) rotate(-90)"/><rect class="cls-1" x="20.27" y="21.35" width="12.48" height="1.31" transform="translate(-7.8 25.19) rotate(-45)"/><rect class="cls-2" x="16.69" y="13.58" width="0.85" height="18.61" transform="translate(13.03 51.17) rotate(-135)"/><path class="cls-3" d="M18.61,13.62l4.18,4.18L24.59,16a2.54,2.54,0,0,0,0-3.59L22.19,10a2.53,2.53,0,0,0-3.58,0h0A2.54,2.54,0,0,0,18.61,13.62Z"/><path class="cls-2" d="M19.6,14.61l3.19,3.19L24.59,16a2.54,2.54,0,0,0,0-3.59L23.19,11a2.52,2.52,0,0,0-3.59,0h0A2.53,2.53,0,0,0,19.6,14.61Z"/><rect class="cls-2" x="23.26" y="9.64" width="0.85" height="18.61" transform="translate(27.03 49.09) rotate(-135)"/><path class="cls-3" d="M25.18,9.68l4.18,4.18,1.8-1.79a2.54,2.54,0,0,0,0-3.59l-2.4-2.39a2.53,2.53,0,0,0-3.58,0h0A2.52,2.52,0,0,0,25.18,9.68Z"/><path class="cls-2" d="M26.17,10.67l3.19,3.19,1.8-1.79a2.54,2.54,0,0,0,0-3.59l-1.4-1.4a2.54,2.54,0,0,0-3.59,0h0A2.54,2.54,0,0,0,26.17,10.67Z"/><rect class="cls-2" x="27.95" y="4.92" width="0.85" height="23.91" transform="translate(36.5 48.88) rotate(-135)"/><path class="cls-3" d="M31.74,5.73l4.19,4.19,1.79-1.79a2.52,2.52,0,0,0,0-3.59L35.33,2.15a2.54,2.54,0,0,0-3.59,0h0A2.53,2.53,0,0,0,31.74,5.73Z"/><path class="cls-2" d="M32.74,6.73l3.19,3.19,1.79-1.79a2.52,2.52,0,0,0,0-3.59l-1.39-1.4a2.54,2.54,0,0,0-3.59,0h0A2.54,2.54,0,0,0,32.74,6.73Z"/><path class="cls-3" d="M9.42,17.08h7.66a2.09,2.09,0,0,1,2.09,2.09V36.23a4,4,0,0,1-4,4H11.3a4,4,0,0,1-4-4V19.17a2.09,2.09,0,0,1,2.09-2.09Z" transform="translate(24.13 -0.98) rotate(45)"/><rect class="cls-2" x="10.49" y="22.52" width="14.1" height="3.66" rx="1.13" ry="1.13" transform="translate(22.36 -5.26) rotate(45)"/><path class="cls-2" d="M11.39,34.76h0a.64.64,0,0,1,0-.92l4.18-4.19a.67.67,0,0,1,.93,0h0a.67.67,0,0,1,0,.93l-4.18,4.18A.65.65,0,0,1,11.39,34.76Z"/><path class="cls-2" d="M9.53,36.62h0a.65.65,0,0,1,0-.93l.46-.46a.65.65,0,0,1,.93,0h0a.65.65,0,0,1,0,.93l-.46.46A.65.65,0,0,1,9.53,36.62Z"/><circle class="cls-2" cx="29.79" cy="33.5" r="6.09"/><circle class="cls-3" cx="29.79" cy="33.5" r="3.88"/></svg>